<svg width="64" height="60" viewBox="0 0 64 60" fill="none" xmlns="http://www.w3.org/2000/svg">
<path d="M62.9971 29.5757C62.9971 45.5616 49.1493 58.5757 31.9971 58.5757C14.8448 58.5757 0.99707 45.5616 0.99707 29.5757C0.99707 13.5898 14.8448 0.575684 31.9971 0.575684C49.1493 0.575684 62.9971 13.5898 62.9971 29.5757Z" stroke="black"/>
<path d="M41.0238 17H21.9762C20.3351 17 19 18.3351 19 19.9762V39.0238C19 40.6649 20.3351 42 21.9762 42H41.0238C42.6649 42 44 40.6649 44 39.0238V19.9762C44 18.3351 42.6649 17 41.0238 17ZM38.6464 27.9065C38.5113 27.919 38.3744 27.9274 38.2357 27.9274C36.6744 27.9274 35.3024 27.1244 34.5042 25.9107C34.5042 29.0946 34.5042 32.7173 34.5042 32.778C34.5042 35.581 32.2315 37.8536 29.4286 37.8536C26.6256 37.8536 24.353 35.581 24.353 32.778C24.353 29.975 26.6256 27.7024 29.4286 27.7024C29.5345 27.7024 29.6381 27.7119 29.7423 27.7185V30.2196C29.6381 30.2071 29.5357 30.1881 29.4286 30.1881C27.9976 30.1881 26.8381 31.3476 26.8381 32.7786C26.8381 34.2095 27.9976 35.369 29.4286 35.369C30.8595 35.369 32.1232 34.2417 32.1232 32.8107C32.1232 32.7542 32.1482 21.1476 32.1482 21.1476H34.5387C34.7637 23.2851 36.4893 24.972 38.6464 25.1268V27.9065Z" fill="black"/>
</svg>
