<svg width="64" height="60" viewBox="0 0 64 60" fill="none" xmlns="http://www.w3.org/2000/svg">
<path d="M62.9971 29.5757C62.9971 45.5616 49.1493 58.5757 31.9971 58.5757C14.8448 58.5757 0.99707 45.5616 0.99707 29.5757C0.99707 13.5898 14.8448 0.575684 31.9971 0.575684C49.1493 0.575684 62.9971 13.5898 62.9971 29.5757Z" stroke="black"/>
<path d="M21.2217 23.4722V35.6894L27.3303 29.5808L21.2217 23.4722ZM22.4355 22.248L30.1691 29.9817C31.1458 30.9584 32.8493 30.9584 33.826 29.9817L41.5596 22.248H22.4355Z" fill="black"/>
<path d="M35.0444 31.2006C34.2315 32.0144 33.1488 32.4635 31.997 32.4635C30.8453 32.4635 29.7626 32.0144 28.9496 31.2006L28.5488 30.7998L22.4453 36.9032H41.5488L35.4453 30.7998L35.0444 31.2006ZM36.6643 29.5808L42.7729 35.6894V23.4722L36.6643 29.5808Z" fill="black"/>
</svg>
