<svg width="64" height="60" viewBox="0 0 64 60" fill="none" xmlns="http://www.w3.org/2000/svg">
<path d="M62.9971 29.5757C62.9971 45.5616 49.1493 58.5757 31.9971 58.5757C14.8448 58.5757 0.99707 45.5616 0.99707 29.5757C0.99707 13.5898 14.8448 0.575684 31.9971 0.575684C49.1493 0.575684 62.9971 13.5898 62.9971 29.5757Z" stroke="black"/>
<path d="M26.3864 17C22.3125 17 19 20.3125 19 24.3864V34.6136C19 38.6875 22.3125 42 26.3864 42H36.6136C40.6875 42 44 38.6875 44 34.6136V24.3864C44 20.3125 40.6875 17 36.6136 17H26.3864ZM38.3182 21.5455C38.9432 21.5455 39.4545 22.0568 39.4545 22.6818C39.4545 23.3068 38.9432 23.8182 38.3182 23.8182C37.6932 23.8182 37.1818 23.3068 37.1818 22.6818C37.1818 22.0568 37.6932 21.5455 38.3182 21.5455ZM31.5 23.25C34.9489 23.25 37.75 26.0511 37.75 29.5C37.75 32.9489 34.9489 35.75 31.5 35.75C28.0511 35.75 25.25 32.9489 25.25 29.5C25.25 26.0511 28.0511 23.25 31.5 23.25ZM31.5 24.3864C28.6818 24.3864 26.3864 26.6818 26.3864 29.5C26.3864 32.3182 28.6818 34.6136 31.5 34.6136C34.3182 34.6136 36.6136 32.3182 36.6136 29.5C36.6136 26.6818 34.3182 24.3864 31.5 24.3864Z" fill="black"/>
</svg>
