<svg width="64" height="60" viewBox="0 0 64 60" fill="none" xmlns="http://www.w3.org/2000/svg">
<path d="M62.9971 29.5757C62.9971 45.5616 49.1493 58.5757 31.9971 58.5757C14.8448 58.5757 0.99707 45.5616 0.99707 29.5757C0.99707 13.5898 14.8448 0.575684 31.9971 0.575684C49.1493 0.575684 62.9971 13.5898 62.9971 29.5757Z" stroke="black"/>
<g clip-path="url(#clip0_4050_60670)">
<path d="M19.4971 20.8508C19.4971 20.0464 19.7786 19.3828 20.3417 18.86C20.9047 18.3371 21.6367 18.0757 22.5376 18.0757C23.4224 18.0757 24.1383 18.3331 24.6853 18.8479C25.2483 19.3788 25.5299 20.0705 25.5299 20.9232C25.5299 21.6954 25.2564 22.3389 24.7094 22.8537C24.1464 23.3846 23.4063 23.65 22.4893 23.65H22.4652C21.5804 23.65 20.8645 23.3846 20.3175 22.8537C19.7706 22.3228 19.4971 21.6551 19.4971 20.8508ZM19.8108 41.9656V25.846H25.1679V41.9656H19.8108ZM28.1361 41.9656H33.4932V32.9647C33.4932 32.4016 33.5576 31.9672 33.6863 31.6616C33.9115 31.1146 34.2533 30.6521 34.7118 30.274C35.1703 29.896 35.7455 29.707 36.4372 29.707C38.239 29.707 39.1399 30.9216 39.1399 33.3508V41.9656H44.4971V32.7234C44.4971 30.3424 43.934 28.5366 42.8079 27.3059C41.6817 26.0752 40.1937 25.4599 38.3436 25.4599C36.2683 25.4599 34.6515 26.3527 33.4932 28.1384V28.1867H33.4691L33.4932 28.1384V25.846H28.1361C28.1682 26.3607 28.1843 27.9614 28.1843 30.6481C28.1843 33.3347 28.1682 37.1072 28.1361 41.9656Z" fill="black"/>
</g>
<defs>
<clipPath id="clip0_4050_60670">
<rect width="25" height="23.89" fill="white" transform="translate(19.4971 18.0757)"/>
</clipPath>
</defs>
</svg>
