<svg width="64" height="60" viewBox="0 0 64 60" fill="none" xmlns="http://www.w3.org/2000/svg">
    <path d="M62.9971 29.5757C62.9971 45.5616 49.1493 58.5757 31.9971 58.5757C14.8448 58.5757 0.99707 45.5616 0.99707 29.5757C0.99707 13.5898 14.8448 0.575684 31.9971 0.575684C49.1493 0.575684 62.9971 13.5898 62.9971 29.5757Z" stroke="black"/>
    <path d="M43.3022 23.2418C43.0711 21.9758 41.9699 21.0539 40.692 20.766C38.7798 20.3635 35.2407 20.0757 31.4116 20.0757C27.5848 20.0757 23.9891 20.3635 22.0746 20.766C20.799 21.0539 19.6956 21.9173 19.4645 23.2418C19.2311 24.6809 19 26.6957 19 29.2862C19 31.8767 19.2311 33.8915 19.5211 35.3306C19.7545 36.5966 20.8556 37.5186 22.1312 37.8064C24.1613 38.2089 27.6415 38.4967 31.4705 38.4967C35.2996 38.4967 38.7798 38.2089 40.8099 37.8064C42.0855 37.5186 43.1866 36.6551 43.42 35.3306C43.6511 33.8915 43.9411 31.8182 44 29.2862C43.8822 26.6957 43.5922 24.6809 43.3022 23.2418ZM28.2804 33.3158V25.2566L35.3563 29.2862L28.2804 33.3158Z" fill="black"/>
</svg>
