<svg width="64" height="60" viewBox="0 0 64 60" fill="none" xmlns="http://www.w3.org/2000/svg">
<path d="M62.9971 29.5757C62.9971 45.5616 49.1493 58.5757 31.9971 58.5757C14.8448 58.5757 0.99707 45.5616 0.99707 29.5757C0.99707 13.5898 14.8448 0.575684 31.9971 0.575684C49.1493 0.575684 62.9971 13.5898 62.9971 29.5757Z" stroke="black"/>
<path d="M44.4971 21.5139C43.5575 21.9216 42.5639 22.191 41.5471 22.3139C42.6198 21.6731 43.4237 20.6649 43.8096 19.4764C42.8015 20.0765 41.698 20.4993 40.5471 20.7264C39.7778 19.8921 38.7533 19.3368 37.6343 19.1475C36.5154 18.9582 35.3652 19.1456 34.3643 19.6804C33.3634 20.2152 32.5682 21.0671 32.1036 22.1025C31.639 23.1379 31.5312 24.2982 31.7971 25.4014C29.7589 25.2983 27.7651 24.7676 25.9454 23.8438C24.1257 22.9199 22.5206 21.6236 21.2346 20.0389C20.7835 20.8266 20.5465 21.7187 20.5471 22.6264C20.5455 23.4694 20.7523 24.2997 21.1493 25.0434C21.5462 25.7871 22.1208 26.4211 22.8221 26.8889C22.007 26.8668 21.2094 26.6481 20.4971 26.2514V26.3139C20.5032 27.495 20.9171 28.6378 21.6687 29.5489C22.4204 30.46 23.4636 31.0835 24.6221 31.3139C24.1761 31.4496 23.7132 31.5212 23.2471 31.5264C22.9244 31.5227 22.6026 31.4934 22.2846 31.4389C22.6145 32.4549 23.2528 33.3429 24.1109 33.9791C24.969 34.6154 26.004 34.9684 27.0721 34.9889C25.2686 36.408 23.0419 37.1825 20.7471 37.1889C20.3292 37.1903 19.9117 37.1653 19.4971 37.1139C21.8401 38.6268 24.5706 39.4298 27.3596 39.4264C29.2842 39.4464 31.1935 39.0827 32.976 38.3565C34.7584 37.6304 36.3783 36.5563 37.7411 35.1971C39.1038 33.8378 40.182 32.2207 40.9128 30.4401C41.6435 28.6595 42.0121 26.7511 41.9971 24.8264C41.9971 24.6139 41.9971 24.3889 41.9971 24.1639C42.9779 23.4324 43.8239 22.5357 44.4971 21.5139Z" fill="black"/>
</svg>
